<svg width="57" height="16" viewBox="0 0 57 16" fill="none" xmlns="http://www.w3.org/2000/svg">
<g id="click 1" clip-path="url(#clip0_870_2039)">
<g id="2180368684240">
<path id="Exclusion 1" d="M7.97882 15.9999C5.24221 16.0171 1.53306 12.3448 0.480295 9.95901V9.95044L0.458999 9.90187C-0.0748357 8.62325 -0.199066 7.55179 0.38801 6.15102C1.28105 4.01238 5.77818 -0.955653 9.02307 0.161529C11.3423 0.959414 20.8661 6.80462 11.7263 14.2013C10.555 15.1428 9.37162 15.9921 7.97882 15.9999ZM3.87852 9.34685C4.93341 11.2041 7.30798 13.372 9.17072 12.1698C12.9771 9.71329 12.9246 7.34321 10.8794 5.29742C8.50343 2.92163 7.01338 3.32664 5.11869 5.31457C4.67004 5.7853 4.29167 6.09388 3.8409 6.97177C3.51648 7.60679 3.44975 8.59397 3.87852 9.34756V9.34685Z" fill="#53B7D1"/>
</g>
<path id="Path 1475" d="M24.9579 11.1777C25.3186 11.1777 25.6513 11.1711 25.9559 11.1578C26.2605 11.1446 26.5737 11.1158 26.8955 11.0716C26.9181 11.0662 26.9417 11.0652 26.9648 11.0685C26.9879 11.0718 27.0101 11.0793 27.03 11.0907C27.0499 11.1021 27.0672 11.117 27.0808 11.1347C27.0945 11.1524 27.1041 11.1724 27.1093 11.1937C27.1144 11.2155 27.1144 11.2381 27.1093 11.26V12.2554C27.1093 12.3695 27.0335 12.4489 26.8819 12.4936C26.5098 12.6006 26.1281 12.6759 25.7413 12.7185C25.3309 12.7702 24.9172 12.7968 24.503 12.7982C23.8374 12.8155 23.1744 12.712 22.5512 12.4936C22.0453 12.3073 21.5993 12.0032 21.2559 11.6104C20.907 11.1943 20.6591 10.7128 20.5295 10.199C20.37 9.57864 20.2933 8.94234 20.3013 8.30452V7.69537C20.2935 7.05793 20.3677 6.42191 20.5223 5.80091C20.6473 5.28792 20.8906 4.80635 21.2352 4.38951C21.5748 3.99601 22.0188 3.69181 22.5234 3.50698C23.1466 3.28865 23.8096 3.18521 24.4752 3.2024C25.2501 3.20737 26.0196 3.32353 26.7565 3.54679C26.8219 3.56181 26.8813 3.59406 26.9275 3.63969C26.9582 3.68285 26.9732 3.73401 26.9703 3.78567V4.73987C26.9778 4.78233 26.967 4.82581 26.9403 4.86094C26.9137 4.89608 26.8732 4.92004 26.8277 4.92766C26.8042 4.93234 26.7799 4.93234 26.7565 4.92766C26.4903 4.89315 26.2009 4.86661 25.8882 4.84803C25.5755 4.82945 25.2575 4.82083 24.9343 4.82215C24.544 4.81211 24.1551 4.87064 23.788 4.99468C23.4873 5.10394 23.2275 5.29289 23.0409 5.53813C22.8355 5.819 22.6972 6.13759 22.6353 6.47243C22.548 6.91156 22.5074 7.35764 22.5141 7.80419V8.21494C22.5072 8.65967 22.549 9.10389 22.6389 9.54073C22.7053 9.87493 22.8486 10.1918 23.0588 10.4697C23.2532 10.7121 23.5174 10.8982 23.8208 11.0065C24.1862 11.1296 24.573 11.1879 24.9614 11.1784L24.9579 11.1777ZM28.7596 3.57134C28.7596 3.42934 28.8309 3.359 28.9735 3.359H30.7386C30.7913 3.35199 30.8449 3.36475 30.8875 3.39449C30.9302 3.42423 30.9584 3.4685 30.966 3.51759C30.9688 3.53541 30.9688 3.55352 30.966 3.57134V10.4219C30.9504 10.6212 31.0001 10.8202 31.1086 10.9926C31.1835 11.064 31.2753 11.118 31.3767 11.1502C31.4781 11.1825 31.5863 11.1921 31.6924 11.1784H35.0657C35.0919 11.1748 35.1185 11.1761 35.1441 11.1822C35.1697 11.1882 35.1938 11.1989 35.2149 11.2137C35.236 11.2284 35.2538 11.2469 35.2672 11.2681C35.2807 11.2892 35.2895 11.3126 35.2932 11.337C35.296 11.3546 35.296 11.3725 35.2932 11.3901V12.3708C35.2932 12.5385 35.2126 12.627 35.0515 12.6362C34.5287 12.6805 33.9308 12.7181 33.2579 12.749C32.5849 12.78 31.8873 12.7955 31.1649 12.7955C30.7843 12.802 30.4043 12.7664 30.0328 12.6893C29.7582 12.6343 29.5017 12.5187 29.285 12.3522C29.0912 12.191 28.9505 11.9818 28.8794 11.7491C28.7917 11.4513 28.7511 11.1433 28.7589 10.8347L28.7596 3.57134ZM38.8255 12.41C38.8302 12.4406 38.8273 12.4719 38.8168 12.5013C38.8063 12.5307 38.7886 12.5574 38.765 12.5793C38.7415 12.6012 38.7128 12.6177 38.6812 12.6275C38.6496 12.6373 38.616 12.64 38.5831 12.6356H36.8608C36.833 12.6393 36.8046 12.638 36.7774 12.6315C36.7502 12.6251 36.7246 12.6137 36.7021 12.5981C36.6796 12.5824 36.6606 12.5628 36.6462 12.5403C36.6319 12.5178 36.6224 12.4929 36.6184 12.467C36.6155 12.4481 36.6155 12.4289 36.6184 12.41V3.59788C36.6184 3.43863 36.6992 3.359 36.8608 3.359H38.5831C38.7447 3.359 38.8255 3.43863 38.8255 3.59788V12.41ZM45.488 11.1777C45.8497 11.1777 46.1824 11.1711 46.486 11.1578C46.7897 11.1446 47.1029 11.1158 47.4256 11.0716C47.4483 11.0662 47.4719 11.0652 47.495 11.0685C47.5181 11.0718 47.5402 11.0793 47.5602 11.0907C47.5801 11.1021 47.5974 11.117 47.611 11.1347C47.6246 11.1524 47.6343 11.1724 47.6395 11.1937C47.6437 11.2145 47.6437 11.2359 47.6395 11.2567V12.252C47.6395 12.3668 47.5639 12.4465 47.4114 12.4909C47.0392 12.5977 46.6574 12.673 46.2707 12.7159C45.86 12.767 45.4462 12.7936 45.0318 12.7955C44.3663 12.8121 43.7037 12.7085 43.0806 12.4903C42.5751 12.3049 42.1292 12.002 41.7853 11.6104C41.4374 11.194 41.1903 10.7126 41.061 10.199C40.9015 9.57864 40.8249 8.94234 40.8329 8.30452V7.69471C40.8251 7.05727 40.8993 6.42126 41.0539 5.80024C41.1792 5.28735 41.4224 4.80583 41.7668 4.38885C42.1064 3.99555 42.5504 3.69157 43.055 3.50698C43.678 3.28877 44.3406 3.18511 45.0061 3.20174C45.7811 3.20661 46.5506 3.32301 47.2873 3.54679C47.3527 3.56181 47.4121 3.59406 47.4584 3.63969C47.489 3.68262 47.504 3.73356 47.5012 3.78501V4.73589C47.5086 4.77834 47.4979 4.82183 47.4712 4.85696C47.4445 4.89209 47.4041 4.91606 47.3586 4.92368C47.3351 4.92801 47.3108 4.92801 47.2873 4.92368C47.0212 4.88917 46.7317 4.86263 46.419 4.84405C46.1063 4.82547 45.7884 4.81685 45.4652 4.81817C45.0749 4.80753 44.6859 4.86585 44.3189 4.99003C44.0181 5.09953 43.7582 5.28841 43.5711 5.53349C43.3668 5.81491 43.2286 6.13327 43.1655 6.46778C43.0787 6.9072 43.0383 7.35347 43.045 7.80021V8.21096C43.0378 8.65679 43.0796 9.10215 43.1697 9.54007C43.2358 9.87436 43.3791 10.1913 43.5896 10.4691C43.7838 10.7115 44.0481 10.8975 44.3517 11.0052C44.7169 11.1288 45.1038 11.1874 45.4923 11.1777H45.488ZM56.4371 3.359C56.4686 3.35611 56.5003 3.36209 56.5282 3.37617C56.556 3.39024 56.5787 3.41177 56.5932 3.43797C56.6068 3.46618 56.6115 3.49744 56.6065 3.52803C56.6016 3.55862 56.5873 3.58725 56.5654 3.61049L53.5186 7.82808L56.9646 12.4C56.9829 12.4212 56.9945 12.4466 56.9982 12.4736C57.0018 12.5005 56.9974 12.5279 56.9853 12.5526C56.9721 12.5817 56.9489 12.6059 56.9194 12.6214C56.8898 12.6368 56.8556 12.6428 56.822 12.6382H54.8146C54.7319 12.6423 54.6493 12.6289 54.5729 12.5991C54.5074 12.5646 54.4531 12.5141 54.4161 12.4531L51.4976 8.31845V12.4133C51.5055 12.4656 51.4908 12.5186 51.4567 12.5608C51.4226 12.603 51.3719 12.6308 51.3158 12.6382C51.2959 12.6408 51.2758 12.6408 51.2559 12.6382H49.5329C49.4767 12.6456 49.4197 12.6319 49.3744 12.6002C49.3291 12.5685 49.2992 12.5213 49.2912 12.469C49.2876 12.4506 49.2876 12.4317 49.2912 12.4133V3.59722C49.2912 3.43797 49.3718 3.35834 49.5329 3.35834H51.2559C51.417 3.35834 51.4976 3.43797 51.4976 3.59722V7.33373L54.2193 3.51494C54.2557 3.4655 54.3045 3.42517 54.3616 3.39751C54.4187 3.36984 54.4822 3.35571 54.5465 3.35635L56.4371 3.359Z" fill="#141521"/>
</g>
<defs>
<clipPath id="clip0_870_2039">
<rect width="57" height="16" fill="white"/>
</clipPath>
</defs>
</svg>
