<svg width="90" height="90" viewBox="0 0 90 90" fill="none" xmlns="http://www.w3.org/2000/svg">
<g id="Frame" clip-path="url(#clip0_870_2273)">
<g id="Group">
<g id="Clip path group">
<mask id="mask0_870_2273" style="mask-type:luminance" maskUnits="userSpaceOnUse" x="0" y="0" width="90" height="90">
<g id="a">
<path id="Vector" d="M0 0.000267029H89.9997V90H0V0.000267029Z" fill="white"/>
</g>
</mask>
<g mask="url(#mask0_870_2273)">
<g id="Group_2">
<path id="Vector_2" d="M44.9051 0.176048C25.9623 0.178856 9.75951 11.9089 3.16194 28.5015L3.10094 28.6555C-0.269654 37.225 2.82092 46.988 10.4589 52.1319L36.201 72.4105C47.308 81.16 62.5382 82.7668 75.0925 76.2626C77.7107 74.9061 79.8765 73.3652 81.1871 71.5731C86.6449 64.1105 89.8558 54.9005 89.8234 44.939C89.7434 20.2746 69.5696 0.172531 44.9051 0.176048Z" fill="#00B7F0"/>
<path id="Vector_3" d="M54.9512 72.5077C54.9512 73.4833 55.7422 74.2743 56.7178 74.2743C57.6935 74.2743 58.4845 73.4833 58.4845 72.5077C58.4845 71.5319 57.6935 70.7411 56.7178 70.7411C55.7422 70.7411 54.9512 71.5319 54.9512 72.5077Z" fill="#0091C8"/>
<path id="Vector_4" d="M57.1513 54.4027C57.4656 54.7178 64.5218 61.7939 64.8419 62.0381C67.6189 64.22 71.8533 62.9057 72.7997 59.3644L77.1998 42.8999C80.8844 38.9262 84.2982 34.2663 87.0571 29.5367C83.5582 20.0574 76.9521 12.0845 68.4751 6.84959C64.9092 8.73344 61.3381 11.0196 58.0374 13.5201C54.9303 15.8735 53.008 17.6944 52.8076 17.8672L35.8377 22.4025C32.0778 23.4073 30.8468 28.0978 33.5772 30.8285L37.3036 34.5549L40.9711 38.2224C40.9649 39.3752 41.0871 40.4555 41.3354 41.5359L35.9019 46.9694C32.319 46.758 28.6653 48.0183 25.9279 50.7557C24.6481 52.0358 22.5027 51.6023 21.7754 49.9449C21.7288 49.839 21.6805 49.7339 21.6306 49.6295C21.6154 49.5984 21.5989 49.568 21.5812 49.5383C20.8811 48.1126 19.8672 46.8641 18.6154 45.8864C17.3953 44.9351 16.8949 43.2993 17.421 41.8444C17.8327 40.7051 18.0217 39.4592 17.9338 38.1588C17.3711 29.8199 6.30622 26.5105 1.43955 33.7683C-5.96732 63.7243 37.9253 96.4719 61.8169 86.7347C68.7303 83.917 75.126 79.2561 80.0933 72.9797C83.4267 68.7678 77.5911 63.4654 73.7136 67.1821C71.7813 69.034 69.6879 70.71 67.4582 72.1903C66.55 72.7934 65.4049 72.7957 64.4311 72.3056C63.628 71.9015 62.6879 72.4515 62.6033 73.3089C62.4963 74.4002 61.8596 75.3712 60.8575 75.8163C59.0369 76.6245 57.1639 77.3093 55.2513 77.8659C54.1866 78.1761 53.0474 77.8179 52.3427 76.9617L52.3307 76.9473C50.6485 74.9147 48.2385 73.4703 45.5573 72.9829C43.7517 72.6547 43.0356 70.459 44.3334 69.1612C47.0708 66.4238 48.3313 62.7702 48.1199 59.1872L53.3813 53.9256C54.583 54.2439 55.8402 54.4095 57.1513 54.4027Z" fill="#0091C8"/>
<path id="Vector_5" d="M24.9365 44.3888C26.1958 44.3888 27.2167 43.3679 27.2167 42.1087C27.2167 40.8494 26.1958 39.8285 24.9365 39.8285C23.6772 39.8285 22.6562 40.8494 22.6562 42.1087C22.6562 43.3679 23.6772 44.3888 24.9365 44.3888Z" fill="#0091C8"/>
<path id="Vector_6" d="M23.7964 34.7486C24.0987 34.7486 24.3887 34.6285 24.6025 34.4147C24.8164 34.2009 24.9365 33.9109 24.9365 33.6085C24.9365 33.3061 24.8164 33.0161 24.6025 32.8023C24.3887 32.5885 24.0987 32.4684 23.7964 32.4684C23.494 32.4684 23.204 32.5885 22.9902 32.8023C22.7764 33.0161 22.6562 33.3061 22.6562 33.6085C22.6562 33.9109 22.7764 34.2009 22.9902 34.4147C23.204 34.6285 23.494 34.7486 23.7964 34.7486Z" fill="#0091C8"/>
<path id="Vector_7" d="M51.8124 78.0297C50.1903 78.3336 48.5491 77.6335 47.5612 76.3114C45.8222 73.9839 43.261 72.4168 40.4389 71.9039C38.6331 71.5755 37.9171 69.38 39.2148 68.0823C44.2975 62.9997 44.2975 54.7593 39.2148 49.6768C34.1322 44.5943 25.8918 44.5943 20.8093 49.6768C19.5294 50.9566 17.3842 50.5232 16.6568 48.8659C15.9486 47.2556 14.8475 45.8488 13.4544 44.7744C12.2308 43.8305 11.7798 42.214 12.3043 40.7603C12.7148 39.6223 12.9028 38.3783 12.8153 37.0798C12.5154 32.6376 8.94144 29.0373 4.50139 28.7095C4.02789 28.6745 3.55239 28.6763 3.07915 28.7148C1.09195 33.788 0 39.3103 0 45.088C0 69.8923 20.1077 90 44.912 90C50.8887 90 56.5914 88.8297 61.8071 86.7103C61.8278 86.2856 61.8164 85.8599 61.773 85.4369C61.2526 80.4124 56.4675 77.1573 51.8124 78.0297Z" fill="white"/>
<path id="Vector_8" d="M16.5119 48.5506C15.9561 47.392 14.1825 48.183 14.6725 49.3707C14.814 49.7139 14.9998 50.0016 15.2423 50.1888C16.6354 51.263 17.7365 52.6698 18.4446 54.2801C19.172 55.9374 21.3174 56.3709 22.5973 55.091C27.6798 50.0085 35.9202 50.0085 41.0027 55.091C41.7564 55.8446 42.4149 56.6877 42.9634 57.6015C42.6797 54.7087 41.4304 51.8927 39.2147 49.6768C34.1322 44.5943 25.8918 44.5943 20.8092 49.6768C19.5294 50.9566 17.3841 50.5232 16.6568 48.8659C16.6102 48.7597 16.5618 48.6546 16.5119 48.5506Z" fill="#F5F0F0"/>
<path id="Vector_9" d="M41.003 73.4965C39.7052 74.7943 40.4214 76.9898 42.2271 77.3181C45.0715 77.8351 47.6509 79.4228 49.3904 81.7807C50.3575 83.0915 51.9999 83.7438 53.6009 83.4438C55.6195 83.0657 57.6619 83.4643 59.3705 84.4466C60.4008 85.039 61.582 83.982 61.097 82.8971C59.5459 79.4284 55.7118 77.3153 51.8464 78.0234C50.2282 78.3197 48.579 77.6899 47.6022 76.3661C46.5822 74.9853 45.2642 73.852 43.7462 73.0504C42.8454 72.574 41.7357 72.7628 41.0157 73.4838L41.003 73.4965Z" fill="#F5F0F0"/>
<path id="Vector_10" d="M3.91661 28.6866C3.82116 28.6856 3.72607 28.6864 3.63132 28.6882C3.57507 28.6894 3.51847 28.6901 3.46239 28.6922C3.33434 28.6971 3.20641 28.7046 3.07867 28.7147C2.23842 30.8621 1.56597 33.0714 1.06738 35.3227C2.58226 34.4392 4.37733 33.9825 6.28895 34.1237C7.05316 34.18 7.80686 34.3351 8.53121 34.5851C10.2992 35.1949 11.7183 33.0103 10.4722 31.6269C10.4184 31.568 10.3627 31.5109 10.3071 31.4534C10.2704 31.4151 10.2343 31.3761 10.1969 31.3384C10.1428 31.2843 10.0869 31.2317 10.0313 31.179C9.98808 31.1377 9.94536 31.0959 9.90124 31.0556C9.84833 31.0069 9.79366 30.9598 9.73952 30.9125C9.69083 30.8698 9.64232 30.8269 9.59275 30.7853C9.54072 30.7418 9.48745 30.6997 9.43437 30.6573C9.38023 30.6139 9.32591 30.5705 9.27072 30.5284C9.21992 30.4894 9.16806 30.4518 9.11656 30.4142C9.05697 30.3708 8.9972 30.3274 8.93673 30.2855C8.88681 30.2509 8.83636 30.2173 8.78591 30.1837C8.72148 30.1408 8.65649 30.0986 8.59097 30.0574C8.54228 30.0268 8.49306 29.9969 8.44367 29.9672C8.32756 29.8968 8.20969 29.8294 8.09017 29.765C7.96994 29.7 7.84833 29.6376 7.72543 29.5778C7.64773 29.5402 7.56934 29.504 7.49041 29.4687C7.444 29.4477 7.3976 29.4268 7.35084 29.4068C7.26945 29.3718 7.18719 29.3388 7.10475 29.3062C7.05869 29.2881 7.01281 29.2697 6.96641 29.2523C6.88203 29.2206 6.79678 29.1911 6.71135 29.1619C6.6653 29.1463 6.61942 29.1299 6.57301 29.115C6.48635 29.087 6.39864 29.0614 6.31092 29.0361C6.26434 29.0225 6.21811 29.0083 6.17135 28.9956C6.08241 28.9716 5.99258 28.9501 5.90276 28.9287C5.85582 28.9174 5.80959 28.9053 5.76231 28.8949C5.67073 28.8747 5.57792 28.8573 5.4851 28.8399C5.43905 28.8313 5.39335 28.8213 5.34712 28.8134C5.2485 28.7965 5.14883 28.7828 5.04934 28.7692C5.00821 28.7634 4.9676 28.7564 4.9263 28.7513C4.78532 28.7343 4.64364 28.7198 4.50091 28.7095C4.35501 28.6986 4.20999 28.6928 4.06532 28.6889C4.01558 28.6875 3.96618 28.6871 3.91661 28.6866Z" fill="#F5F0F0"/>
<path id="Vector_11" d="M72.8778 38.8398L65.4272 31.3891L54.9512 49.7046L59.2548 60.5459C61.9972 63.288 66.6796 62.0317 67.6809 58.2853L72.8778 38.8398Z" fill="#8757F3"/>
<path id="Vector_12" d="M59.6796 60.927C61.3854 62.2968 63.4402 59.7951 61.8241 58.3203C61.7643 58.2657 61.7057 58.2097 61.6485 58.1524C60.4319 56.9359 60.7198 54.9033 62.2164 54.0545L62.3272 53.9914C67.2696 51.1632 70.8462 46.4412 72.3166 40.9396L72.8779 38.8398L65.4273 31.3891L50.1561 46.6602L47.7627 49.0537L55.5285 56.8195L59.2549 60.5459C59.3895 60.6805 59.5312 60.8077 59.6796 60.927Z" fill="#6A2BC2"/>
<path id="Vector_13" d="M50.1646 16.1264L57.6153 23.5771L38.0212 31.3891L28.4585 29.7492C25.7164 27.0071 26.9727 22.3246 30.7191 21.3232L50.1646 16.1264Z" fill="#8757F3"/>
<path id="Vector_14" d="M28.0773 29.3247C26.7074 27.6189 29.2091 25.564 30.6839 27.1802C30.738 27.2396 30.7941 27.2983 30.8518 27.356C32.0684 28.5725 34.1009 28.2844 34.9499 26.7878C34.9707 26.7509 34.9918 26.7142 35.0129 26.6773C37.841 21.7347 42.563 18.1581 48.0646 16.6876L50.1645 16.1266L57.6153 23.577L42.3441 38.8481L39.9505 41.2416L32.1847 33.4758L28.4583 29.7494C28.3237 29.6148 28.1965 29.473 28.0773 29.3247Z" fill="#6A2BC2"/>
<path id="Vector_15" d="M70.4181 43.5503C57.8254 56.1431 47.6515 55.2171 40.8056 48.3709C33.9593 41.5248 35.1704 35.1615 47.7632 22.5688C60.3559 9.97602 79.5619 -4.07782 86.408 2.76849C93.2542 9.61444 83.0109 30.9576 70.4181 43.5503Z" fill="#FEC502"/>
<path id="Vector_16" d="M71.1102 21.904C70.5558 20.9861 69.9049 20.1882 69.1826 19.51C67.2689 17.7134 69.062 14.5252 71.5645 15.3177C73.1438 15.8178 74.5797 16.6905 75.751 17.8621L75.9453 18.0563C79.8168 21.9279 86.4541 20.1369 87.8094 14.8322C88.8476 10.7695 89.0676 6.72199 87.3141 3.91319C83.1802 -2.69493 70.8932 1.88327 63.9714 5.4474C63.8319 5.51931 63.6925 5.59167 63.5534 5.66449C57.1703 9.01012 50.6903 13.6936 45.6256 18.7584C33.0328 31.3511 33.9588 41.5248 40.8051 48.3709C41.9326 49.4986 43.1509 50.4641 44.4549 51.2367C42.0057 47.1018 41.5121 42.1005 44.0565 36.362C45.82 32.3847 51.1147 31.4401 54.0954 34.6094C54.1711 34.6901 54.2485 34.7697 54.3272 34.8487C59.0401 39.5615 67.0624 38.9479 70.9134 33.0081C73.0857 29.6579 73.1746 25.3217 71.1102 21.904Z" fill="#FFA50A"/>
<path id="Vector_17" d="M85.0128 22.5688C88.8483 14.1962 90.0593 6.41999 86.4078 2.76832C82.7561 -0.883175 77.4224 2.77043 69.0498 6.60579L85.0128 22.5688Z" fill="#8757F3"/>
<path id="Vector_18" d="M82.1902 16.4565L79.7781 14.0446C77.6946 11.9611 78.5689 8.40578 81.3827 7.53092C82.7067 7.11924 83.9899 6.79685 85.2161 6.57379C86.9813 6.25281 87.696 4.07243 86.435 2.79591L86.4077 2.76849C82.7562 -0.883181 74.98 0.327948 66.6074 4.16331L82.1902 19.7461C83.0985 18.8378 83.0985 17.365 82.1902 16.4565Z" fill="#6A2BC2"/>
<path id="Vector_19" d="M71.1569 33.1202C66.9869 37.29 60.2262 37.29 56.0561 33.1202C51.8862 28.9501 51.8862 22.1894 56.0561 18.0194C60.2262 13.8495 66.9869 13.8495 71.1569 18.0194C75.3268 22.1894 75.3268 28.9501 71.1569 33.1202Z" fill="white"/>
<path id="Vector_20" d="M24.6898 72.8141L20.3011 73.3777C19.4542 73.4863 18.7332 72.7654 18.842 71.9185L19.4055 67.5298C19.9684 63.1454 21.9693 59.0714 25.095 55.9457C28.1821 52.8588 33.1869 52.8588 36.274 55.9457C39.3608 59.0327 39.3608 64.0376 36.274 67.1244C33.1482 70.2501 29.0743 72.2511 24.6898 72.8141Z" fill="#F5F0F0"/>
<path id="Vector_21" d="M25.2923 68.8834L19.2295 69.6618C19.2295 69.6618 23.8546 56.7562 26.9804 53.6304C26.9804 53.6304 31.862 49.0519 34.8219 50.5319C35.5822 50.9124 36.2759 51.4132 36.8763 52.015C39.9632 55.1019 39.9634 60.1069 36.8765 63.1938C33.7508 66.3195 29.6767 68.3205 25.2923 68.8834Z" fill="#FEC502"/>
<path id="Vector_22" d="M68.9451 30.9085C65.9965 33.8571 61.2158 33.8571 58.2673 30.9085C55.3186 27.96 56.6329 24.8782 59.5814 21.9295C62.1615 19.3495 64.8299 17.3282 67.7607 19.2632C68.1871 19.545 68.5839 19.8692 68.9451 20.2307C71.8936 23.1793 71.8936 27.96 68.9451 30.9085Z" fill="#00B7F0"/>
<path id="Vector_23" d="M38.6345 53.773L30.7676 45.9061L36.217 40.4567L44.0838 48.3236L38.6345 53.773Z" fill="#6A2BC2"/>
<path id="Vector_24" d="M42.9856 58.1239L37.0085 52.1468C35.5037 50.642 35.5037 48.2021 37.0085 46.6975C38.5132 45.1926 40.953 45.1926 42.4579 46.6975L48.435 52.6745L42.9856 58.1239Z" fill="#8757F3"/>
<path id="Vector_25" d="M63.793 29.7541C64.0944 29.4527 64.2637 29.0439 64.2637 28.6176C64.2637 28.1914 64.0944 27.7826 63.793 27.4811L61.5044 25.1926C61.0011 24.6894 60.9739 23.872 61.4601 23.3524L61.5016 23.3082C62.0099 22.7737 62.8679 22.7837 63.3896 23.3054L64.082 23.9978C64.6872 24.6032 65.6727 24.6749 66.3158 24.11C66.4814 23.965 66.6155 23.7876 66.7097 23.5887C66.804 23.3898 66.8564 23.1737 66.8637 22.9537C66.871 22.7338 66.8331 22.5147 66.7523 22.3099C66.6715 22.1052 66.5495 21.9193 66.3939 21.7637C66.1044 21.4743 66.3032 20.9827 66.7124 20.9688L66.7565 20.9674C67.8492 20.9364 68.2123 19.484 67.2533 18.9594C64.5034 17.4556 60.9508 17.7624 58.5122 19.9972C55.3216 22.9212 55.2402 27.8808 58.2681 30.9086C58.4729 31.1135 58.6894 31.3065 58.9163 31.4866C59.3556 31.835 59.9752 31.4059 59.8005 30.8733L59.7851 30.826C59.4472 29.774 60.7387 28.9728 61.52 29.7541C61.6693 29.9034 61.8464 30.0218 62.0414 30.1026C62.2364 30.1833 62.4454 30.2249 62.6565 30.2249C62.8676 30.2249 63.0766 30.1833 63.2716 30.1026C63.4666 30.0218 63.6438 29.9034 63.793 29.7541Z" fill="#0091C8"/>
<path id="Vector_26" d="M25.6975 52.015C22.5718 55.1407 20.5709 59.2146 20.0078 63.599L19.2295 69.6618C19.8225 69.5856 20.3738 69.3158 20.7979 68.8944C21.222 68.473 21.4953 67.9234 21.5753 67.331C21.6797 66.5616 21.817 65.7595 22.0836 64.7614C22.4294 63.4669 24.0432 63.0275 24.9905 63.9749L25.9313 64.9157C26.6768 65.661 27.8851 65.661 28.6306 64.9157C29.3759 64.1702 29.3759 62.9619 28.6306 62.2166L26.0584 59.6442C25.7434 59.3293 25.5568 58.9086 25.5346 58.4638C25.5124 58.0189 25.6564 57.5817 25.9385 57.2371L25.9515 57.2213C26.6188 56.4062 27.8436 56.3452 28.5886 57.0901L29.4715 57.9731C30.2168 58.7184 31.4253 58.7184 32.1708 57.9731C32.9161 57.2278 32.9161 56.0193 32.1708 55.274C31.5009 54.6041 31.9752 53.4495 32.9225 53.4576C32.9536 53.4578 32.9849 53.4583 33.016 53.4589C35.0352 53.5 35.5375 50.6662 33.6085 50.0682C30.9857 49.2552 27.9491 49.7632 25.6975 52.015Z" fill="#FFA50A"/>
<path id="Vector_27" d="M53.3664 71.4286C53.3664 72.4044 52.5754 73.1952 51.5998 73.1952C50.624 73.1952 49.833 72.4044 49.833 71.4286C49.833 70.453 50.624 69.662 51.5998 69.662C52.5754 69.662 53.3664 70.453 53.3664 71.4286Z" fill="white"/>
<path id="Vector_28" d="M57.4785 72.1435C57.4785 71.8646 57.5893 71.5971 57.7865 71.3999C57.9837 71.2027 58.2512 71.0919 58.5301 71.0919C58.809 71.0919 59.0765 71.2027 59.2737 71.3999C59.4709 71.5971 59.5817 71.8646 59.5817 72.1435C59.5817 72.4224 59.4709 72.6899 59.2737 72.8871C59.0765 73.0843 58.809 73.1951 58.5301 73.1951C58.2512 73.1951 57.9837 73.0843 57.7865 72.8871C57.5893 72.6899 57.4785 72.4224 57.4785 72.1435Z" fill="white"/>
<path id="Vector_29" d="M22.0984 41.0294C22.0984 42.2887 21.0774 43.3096 19.8181 43.3096C18.5588 43.3096 17.5381 42.2887 17.5381 41.0294C17.5381 39.7701 18.5588 38.7492 19.8181 38.7492C21.0774 38.7492 22.0984 39.7701 22.0984 41.0294Z" fill="white"/>
<path id="Vector_30" d="M19.8172 32.5292C19.8172 32.6789 19.7878 32.8272 19.7305 32.9655C19.6732 33.1038 19.5892 33.2295 19.4833 33.3353C19.3774 33.4412 19.2517 33.5251 19.1134 33.5824C18.9751 33.6397 18.8268 33.6692 18.6771 33.6691C18.5274 33.6691 18.3792 33.6396 18.2409 33.5823C18.1026 33.5251 17.9769 33.4411 17.871 33.3352C17.7652 33.2294 17.6812 33.1037 17.6239 32.9654C17.5666 32.8271 17.5371 32.6788 17.5371 32.5291C17.5371 32.3794 17.5666 32.2311 17.6239 32.0928C17.6812 31.9545 17.7652 31.8288 17.871 31.723C17.9769 31.6171 18.1026 31.5331 18.2409 31.4759C18.3792 31.4186 18.5274 31.3891 18.6771 31.3891C18.9795 31.3891 19.2695 31.5092 19.4833 31.723C19.6971 31.9368 19.8172 32.2268 19.8172 32.5292Z" fill="white"/>
</g>
</g>
</g>
</g>
</g>
<defs>
<clipPath id="clip0_870_2273">
<rect width="90" height="90" fill="white"/>
</clipPath>
</defs>
</svg>
