<svg width="90" height="90" fill="none" xmlns="http://www.w3.org/2000/svg"><g clip-path="url(#a)"><mask id="b" style="mask-type:luminance" maskUnits="userSpaceOnUse" x="0" y="0" width="90" height="90"><path d="M0 0h90v90H0V0z" fill="#fff"/></mask><g mask="url(#b)"><path d="M44.905.176C25.962.18 9.76 11.91 3.162 28.502l-.061.154c-3.37 8.57-.28 18.332 7.358 23.476L36.2 72.411c11.107 8.75 26.337 10.356 38.892 3.852 2.618-1.357 4.783-2.898 6.094-4.69a44.712 44.712 0 0 0 8.636-26.634C89.743 20.275 69.57.173 44.905.176z" fill="#00B7F0"/><path d="M54.951 72.508a1.767 1.767 0 1 0 3.534 0 1.767 1.767 0 0 0-3.534 0z" fill="#0091C8"/><path d="M57.152 54.403c.314.315 7.37 7.39 7.69 7.635 2.777 2.182 7.012.868 7.958-2.674L77.2 42.9c3.685-3.974 7.099-8.634 9.858-13.363-3.5-9.48-10.105-17.453-18.582-22.688a77.333 77.333 0 0 0-10.438 6.671c-3.107 2.353-5.03 4.174-5.23 4.347l-16.97 4.535c-3.76 1.005-4.99 5.696-2.26 8.426l3.726 3.727 3.667 3.667a14.25 14.25 0 0 0 .365 3.314l-5.434 5.433a12.98 12.98 0 0 0-9.974 3.787c-1.28 1.28-3.425.846-4.152-.811a11.076 11.076 0 0 0-.145-.316 1.252 1.252 0 0 0-.05-.09 10.514 10.514 0 0 0-2.965-3.653c-1.22-.951-1.72-2.587-1.194-4.042a9.02 9.02 0 0 0 .512-3.685c-.562-8.34-11.627-11.649-16.494-4.39-7.407 29.955 36.486 62.703 60.377 52.966A45.063 45.063 0 0 0 80.094 72.98c3.333-4.212-2.502-9.515-6.38-5.798a45.06 45.06 0 0 1-6.255 5.008c-.909.603-2.054.606-3.027.115-.804-.404-1.744.146-1.828 1.004-.107 1.091-.744 2.062-1.746 2.507a44.4 44.4 0 0 1-5.606 2.05 2.762 2.762 0 0 1-2.909-.904l-.012-.015a11.515 11.515 0 0 0-6.773-3.964c-1.806-.328-2.522-2.524-1.224-3.822a12.98 12.98 0 0 0 3.786-9.974l5.262-5.261c1.202.318 2.459.483 3.77.477z" fill="#0091C8"/><path d="M24.936 44.389a2.28 2.28 0 1 0 0-4.56 2.28 2.28 0 0 0 0 4.56zM23.796 34.748a1.14 1.14 0 1 0 0-2.28 1.14 1.14 0 0 0 0 2.28z" fill="#0091C8"/><path d="M51.812 78.03c-1.622.304-3.263-.397-4.25-1.719a11.463 11.463 0 0 0-7.123-4.407c-1.806-.328-2.522-2.524-1.224-3.822 5.082-5.082 5.082-13.323 0-18.405-5.083-5.083-13.323-5.083-18.406 0-1.28 1.28-3.425.846-4.152-.811a10.51 10.51 0 0 0-3.203-4.092c-1.223-.944-1.674-2.56-1.15-4.014a9.025 9.025 0 0 0 .511-3.68c-.3-4.442-3.874-8.043-8.314-8.37a9.187 9.187 0 0 0-1.422.005A44.795 44.795 0 0 0 0 45.088C0 69.892 20.108 90 44.912 90c5.977 0 11.68-1.17 16.895-3.29.02-.424.01-.85-.034-1.273-.52-5.025-5.306-8.28-9.96-7.407z" fill="#fff"/><path d="M16.512 48.55c-.556-1.158-2.33-.367-1.84.82.142.344.328.632.57.819a10.507 10.507 0 0 1 3.203 4.091c.727 1.657 2.872 2.09 4.152.811 5.083-5.083 13.323-5.083 18.406 0a13.041 13.041 0 0 1 1.96 2.51 12.96 12.96 0 0 0-3.748-7.924c-5.083-5.083-13.323-5.083-18.406 0-1.28 1.28-3.425.846-4.152-.811a10.363 10.363 0 0 0-.145-.315zM41.003 73.496c-1.298 1.298-.582 3.494 1.224 3.822a11.462 11.462 0 0 1 7.163 4.463 4.27 4.27 0 0 0 4.21 1.663c2.02-.379 4.062.02 5.77 1.002 1.03.593 2.212-.464 1.727-1.549-1.551-3.469-5.385-5.582-9.25-4.874a4.298 4.298 0 0 1-4.245-1.657 11.43 11.43 0 0 0-3.856-3.316c-.9-.476-2.01-.287-2.73.434l-.013.012zM3.917 28.687c-.095-.001-.19 0-.285.001l-.17.004a9.107 9.107 0 0 0-.383.023 44.595 44.595 0 0 0-2.011 6.608 8.998 8.998 0 0 1 5.221-1.2 8.862 8.862 0 0 1 2.243.462c1.768.61 3.187-1.575 1.94-2.958-.053-.059-.109-.116-.164-.174l-.11-.114c-.055-.055-.11-.107-.166-.16-.043-.041-.086-.083-.13-.123-.053-.049-.108-.096-.162-.143-.049-.043-.097-.086-.147-.128l-.158-.128a7.887 7.887 0 0 0-.164-.128c-.05-.04-.102-.077-.154-.115a8.604 8.604 0 0 0-.18-.128l-.15-.102a8.91 8.91 0 0 0-1.296-.715l-.14-.062a8.69 8.69 0 0 0-.246-.1l-.138-.055a9.34 9.34 0 0 0-.255-.09l-.138-.047a8.649 8.649 0 0 0-.263-.079c-.046-.013-.092-.028-.14-.04-.088-.024-.178-.046-.268-.067-.047-.011-.093-.024-.14-.034-.092-.02-.185-.038-.277-.055l-.138-.027a8.65 8.65 0 0 0-.298-.044l-.123-.018a8.905 8.905 0 0 0-.861-.062l-.149-.002z" fill="#F5F0F0"/><path d="m72.878 38.84-7.45-7.45-10.476 18.315 4.303 10.84c2.743 2.743 7.425 1.487 8.426-2.26l5.197-19.445z" fill="#8757F3"/><path d="M59.68 60.927c1.706 1.37 3.76-1.132 2.145-2.607a5.148 5.148 0 0 1-.176-.168c-1.217-1.216-.929-3.249.568-4.098l.11-.063c4.943-2.828 8.52-7.55 9.99-13.051l.561-2.1-7.45-7.45-15.271 15.27-2.394 2.394 7.766 7.765 3.726 3.727c.135.134.277.262.425.38z" fill="#6A2BC2"/><path d="m50.165 16.127 7.45 7.45-19.594 7.812-9.563-1.64c-2.742-2.742-1.485-7.424 2.261-8.426l19.446-5.197z" fill="#8757F3"/><path d="M28.077 29.325c-1.37-1.706 1.132-3.76 2.607-2.145.054.06.11.118.168.176 1.216 1.217 3.249.929 4.098-.568.02-.037.042-.074.063-.11 2.828-4.943 7.55-8.52 13.052-9.99l2.1-.561 7.45 7.45-15.27 15.271-2.395 2.394-7.765-7.766-3.727-3.726a5.251 5.251 0 0 1-.38-.425z" fill="#6A2BC2"/><path d="M70.418 43.55C57.825 56.143 47.65 55.217 40.805 48.37c-6.846-6.845-5.635-13.209 6.958-25.801C60.355 9.976 79.56-4.078 86.408 2.769c6.846 6.845-3.398 28.188-15.99 40.781z" fill="#FEC502"/><path d="M71.11 21.904a11.248 11.248 0 0 0-1.927-2.394c-1.914-1.797-.121-4.985 2.381-4.193a10.33 10.33 0 0 1 4.187 2.545l.194.194c3.872 3.872 10.51 2.08 11.864-3.224 1.039-4.063 1.259-8.11-.495-10.919-4.134-6.608-16.42-2.03-23.343 1.534l-.418.217C57.17 9.01 50.69 13.694 45.626 18.758c-12.593 12.593-11.667 22.767-4.82 29.613a18.556 18.556 0 0 0 3.649 2.866c-2.45-4.135-2.943-9.137-.398-14.875 1.763-3.977 7.058-4.922 10.038-1.753.076.081.154.16.232.24 4.713 4.712 12.735 4.099 16.586-1.841 2.173-3.35 2.262-7.686.197-11.104z" fill="#FFA50A"/><path d="M85.013 22.569c3.835-8.373 5.046-16.149 1.395-19.8-3.652-3.652-8.986.001-17.358 3.837l15.963 15.963z" fill="#8757F3"/><path d="m82.19 16.456-2.412-2.411c-2.083-2.084-1.21-5.64 1.605-6.514a32.67 32.67 0 0 1 3.833-.957c1.765-.321 2.48-2.502 1.219-3.778l-.027-.028C82.756-.883 74.98.328 66.608 4.163L82.19 19.746a2.326 2.326 0 0 0 0-3.29z" fill="#6A2BC2"/><path d="M71.157 33.12c-4.17 4.17-10.93 4.17-15.1 0s-4.17-10.93 0-15.1 10.93-4.17 15.1 0 4.17 10.93 0 15.1z" fill="#fff"/><path d="m24.69 72.814-4.389.564a1.304 1.304 0 0 1-1.459-1.46l.564-4.388a19.98 19.98 0 0 1 5.689-11.584 7.905 7.905 0 0 1 11.179 11.178 19.982 19.982 0 0 1-11.584 5.69z" fill="#F5F0F0"/><path d="m25.292 68.883-6.063.779s4.626-12.906 7.751-16.032c0 0 4.882-4.578 7.842-3.098a7.905 7.905 0 0 1 2.055 12.662 19.982 19.982 0 0 1-11.585 5.69z" fill="#FEC502"/><path d="M68.946 30.909a7.55 7.55 0 0 1-10.678 0c-2.949-2.95-1.635-6.03 1.314-8.98 2.58-2.58 5.248-4.6 8.18-2.666a7.55 7.55 0 0 1 1.184 11.645z" fill="#00B7F0"/><path d="m38.635 53.773-7.867-7.867 5.449-5.45 7.867 7.868-5.45 5.449z" fill="#6A2BC2"/><path d="m42.986 58.124-5.977-5.977a3.853 3.853 0 0 1 5.449-5.45l5.977 5.978-5.45 5.449z" fill="#8757F3"/><path d="M63.792 29.754a1.607 1.607 0 0 0 0-2.273l-2.288-2.288a1.327 1.327 0 0 1-.044-1.84l.041-.045c.508-.534 1.366-.524 1.888-.002l.693.692c.605.605 1.59.677 2.233.112a1.61 1.61 0 0 0 .078-2.346.466.466 0 0 1 .319-.795l.044-.002c1.093-.03 1.456-1.483.497-2.008-2.75-1.503-6.303-1.197-8.741 1.038a7.55 7.55 0 0 0 .404 11.49c.44.348 1.059-.08.884-.614l-.015-.047c-.338-1.052.953-1.853 1.735-1.072a1.608 1.608 0 0 0 2.272 0z" fill="#0091C8"/><path d="M25.698 52.015a19.981 19.981 0 0 0-5.69 11.584l-.778 6.063a2.717 2.717 0 0 0 2.345-2.331c.105-.77.242-1.572.509-2.57.345-1.294 1.96-1.733 2.907-.786l.94.94a1.909 1.909 0 0 0 2.7-2.698l-2.573-2.573a1.796 1.796 0 0 1-.12-2.407l.014-.016a1.78 1.78 0 0 1 2.637-.13l.883.882a1.909 1.909 0 0 0 2.699-2.699c-.67-.67-.196-1.824.752-1.816h.093c2.02.042 2.522-2.792.593-3.39-2.623-.813-5.66-.305-7.912 1.947z" fill="#FFA50A"/><path d="M53.366 71.429a1.767 1.767 0 1 1-3.533 0 1.767 1.767 0 0 1 3.533 0zM57.478 72.144a1.052 1.052 0 1 1 2.104 0 1.052 1.052 0 0 1-2.104 0zM22.098 41.03a2.28 2.28 0 1 1-4.56 0 2.28 2.28 0 0 1 4.56 0zM19.818 32.53a1.14 1.14 0 1 1-2.28 0 1.14 1.14 0 0 1 2.28 0z" fill="#fff"/></g></g><defs><clipPath id="a"><path fill="#fff" d="M0 0h90v90H0z"/></clipPath></defs></svg>