<svg width="104" height="70" viewBox="0 0 104 70" fill="none" xmlns="http://www.w3.org/2000/svg">
<g id="Payme">
<rect id="Rectangle 57" x="0.5" y="0.5" width="103" height="69" rx="11.5" fill="white" stroke="#E2E6EC"/>
<g id="Group">
<g id="Layer_1-2">
<path id="Vector" d="M36.7133 28.6796C36.5079 28.3443 36.2315 28.0559 35.9155 27.8298C35.5916 27.6115 35.2441 27.44 34.8728 27.3309C34.4699 27.1983 34.0513 27.1126 33.6247 27.0736C33.1271 27.0268 32.6294 27.0034 32.1318 27.0034H27.8267C27.416 26.9645 27.0526 27.2607 27.0131 27.6739C27.0131 27.6817 27.0131 27.6895 27.0131 27.6973C27.0131 27.6973 27.0131 27.7207 27.0131 27.7363V34.6356C27.6135 35.8985 28.6008 36.9432 29.841 37.6136V36.226C29.8015 35.7738 30.1412 35.384 30.5914 35.345H31.8869C33.6484 35.345 34.9913 34.9786 35.9234 34.2536C36.8555 33.5286 37.3216 32.445 37.3374 31.0183C37.3374 30.6051 37.29 30.192 37.1873 29.7944C37.0846 29.389 36.9266 29.0226 36.7133 28.6796ZM34.1856 32.2267C34.0355 32.4839 33.8143 32.6866 33.5457 32.8192C33.2535 32.9595 32.9375 33.0374 32.6215 33.0608C32.2661 33.1076 31.9106 33.1232 31.5551 33.1232H30.315C30.0148 33.1232 29.8331 32.8815 29.8331 32.5385V29.693C29.8173 29.4591 29.999 29.2565 30.236 29.2409C30.2597 29.2409 30.2913 29.2409 30.315 29.2409H31.5551C31.958 29.2409 32.3372 29.2487 32.6926 29.272C33.0086 29.2876 33.3246 29.3656 33.6089 29.4903C33.8775 29.6073 34.0987 29.8022 34.2409 30.0516C34.4068 30.3869 34.4778 30.7533 34.462 31.1197C34.4699 31.5095 34.3752 31.8915 34.1856 32.2267ZM29.841 38.019C28.7825 37.637 27.8109 37.0367 27.0052 36.2571V39.5938C26.9657 39.851 27.1553 40.0927 27.416 40.1317C27.4239 40.1317 27.4318 40.1317 27.4397 40.1317H29.3829C29.8963 40.1317 29.841 39.586 29.841 39.586V38.019ZM56.5956 30.6363H54.9131C54.5813 30.6129 54.2811 30.8312 54.21 31.1508L52.2589 36.452C52.2589 36.452 50.5369 31.6186 50.4105 31.2444C50.3394 30.8858 50.0235 30.6363 49.6522 30.6285H48.104C47.551 30.6285 47.551 31.0573 47.6221 31.221C47.6932 31.3847 49.8102 37.1069 50.6396 39.2975C50.766 39.5704 50.8608 39.851 50.9082 40.1473C50.8529 40.4357 50.7423 40.7164 50.5843 40.9658C50.5211 41.0672 50.45 41.1685 50.371 41.2621C51.9667 40.7943 53.8151 39.087 54.7472 37.2472C55.6872 34.698 56.9195 31.299 56.9747 31.1197C57.03 30.8546 57.03 30.6363 56.5956 30.6363ZM49.1071 41.7766C48.965 41.7766 48.8228 41.761 48.6727 41.7454C48.4989 41.722 48.1592 41.7454 48.1592 42.0417V43.3202C48.1592 43.8113 48.4041 43.8425 48.5226 43.8737C48.9176 43.9595 49.3283 44.0062 49.7391 43.9984C50.2209 44.014 50.7028 43.9127 51.1372 43.71C51.5401 43.5073 51.8956 43.2344 52.1799 42.8914C52.5117 42.5172 52.7882 42.1118 53.0093 41.6675C53.2463 41.1997 53.4754 40.6774 53.6887 40.1083L53.9415 39.4301C53.4517 39.929 51.2478 41.9871 49.1071 41.7766ZM46.5715 32.1643C46.4767 31.946 46.3582 31.7511 46.2002 31.5718C46.0423 31.4081 45.8685 31.2678 45.671 31.143C45.4656 31.0027 45.2365 30.8858 45.0075 30.7844C44.7705 30.6909 44.5256 30.6207 44.2807 30.5662C43.9964 30.5038 43.712 30.4648 43.4197 30.4414C43.1117 30.4102 42.7641 30.3946 42.377 30.3946C39.8098 30.3946 38.3485 31.1898 37.993 32.788C37.9377 33.0141 38.072 33.2479 38.309 33.3025C38.3327 33.3103 38.3563 33.3103 38.3721 33.3103H39.952C40.3864 33.3103 40.3864 33.1778 40.5444 32.8114C40.6155 32.6087 40.7419 32.4372 40.9157 32.3124C41.3185 32.0552 41.8004 31.9382 42.2743 31.9694C42.7246 31.9226 43.167 32.0318 43.5461 32.2812C43.8305 32.5463 43.9964 32.9049 44.0122 33.2947C44.0122 33.8248 43.8463 34.1678 43.1828 34.1678C41.6108 34.1133 39.9204 34.2848 38.9725 34.8305C38.0167 35.4074 37.4479 36.4364 37.4795 37.5435C37.4716 37.9644 37.5585 38.3854 37.7323 38.7674C37.8982 39.1026 38.1431 39.3911 38.4432 39.6172C38.7592 39.8666 39.1226 40.0615 39.5096 40.1707C39.952 40.2876 40.4022 40.3422 40.8604 40.3422C41.4765 40.35 42.0848 40.2642 42.6772 40.0849C43.1986 39.8744 43.6883 39.6016 44.1386 39.2741V39.5704C44.1386 39.8666 44.2254 40.1239 44.573 40.1239H46.4056C46.7769 40.1239 46.8638 39.8666 46.8638 39.5392V33.973C46.8638 33.6221 46.8401 33.2791 46.7927 32.9361C46.7532 32.6788 46.6742 32.4138 46.5715 32.1643ZM44.0675 37.6292C44.0675 37.6292 43.5935 38.6037 41.911 38.6037C41.5081 38.6193 41.1132 38.5101 40.7735 38.2919C40.4733 38.058 40.3074 37.6994 40.339 37.3252C40.2996 36.8184 40.5839 36.3429 41.05 36.1246C41.7293 35.8673 42.456 35.7504 43.1828 35.7738C43.6093 35.7114 44.0043 35.9999 44.0675 36.4209C44.0754 36.4598 44.0754 36.4988 44.0754 36.5378L44.0675 37.6292Z" fill="#333333"/>
<path id="Vector_2" d="M86.6714 33.4466C87.1108 34.1333 87.1108 35.0072 86.6714 35.6939C86.2319 36.3415 83.8588 38.8151 83.0757 39.611C82.3966 40.2977 81.4777 41 80.5668 41H61.7097C59.1608 41 59.001 40.1495 59.001 38.2533V30.5126C59.001 28.5696 59.5923 28 61.3341 28H80.6067C81.5096 28 82.3167 28.4526 83.2196 29.3577C84.0186 30.1381 86.3518 32.9862 86.6714 33.4466Z" fill="#33CCCC"/>
<path id="Vector_3" d="M63.001 29.635V29.5798C63.001 29.2853 63.001 29 62.4528 29H60.4894C60.0309 29 60.001 29.2301 60.001 29.589V32C60.7784 30.9969 61.805 30.1871 63.001 29.635Z" fill="white"/>
<path id="Vector_4" d="M72.9984 38.4563V38.3427V33.2137C72.9984 31.0712 72.0639 30 70.2028 30C69.6837 30.0081 69.1805 30.1623 68.7412 30.4463C68.262 30.7547 67.8307 31.1362 67.4632 31.5825C67.2955 31.1037 66.976 30.6898 66.5607 30.422C66.0815 30.1542 65.5383 30.0243 64.9872 30.0487C64.1805 30.0487 63.3978 30.3246 62.7588 30.8278C62.623 30.9657 60.0032 33.0433 60.0032 35.202V38.4806C60.0032 38.5861 59.9473 38.9838 60.3946 38.9838H62.0399C62.5511 38.9838 62.5032 38.6429 62.5032 38.505V33.1975C62.7748 32.8242 63.3419 31.9234 64.2684 31.9234C64.5719 31.899 64.8674 32.037 65.0351 32.2885C65.2188 32.67 65.2987 33.092 65.2668 33.5059V37.6447V38.4968C65.2668 38.6023 65.2109 39 65.6581 39H67.2715C67.7827 39 67.7348 38.6592 67.7348 38.5212V38.4076V33.1894C68.0303 32.8161 68.6054 31.9152 69.5 31.9152C69.8035 31.8909 70.099 32.0289 70.2827 32.2804C70.4744 32.6537 70.5543 33.0839 70.5223 33.4977V37.6366V38.4887C70.5223 38.5942 70.4664 38.9919 70.9137 38.9919H72.5591C73.0623 38.927 72.9984 38.5861 72.9984 38.4563Z" fill="white"/>
<path id="Vector_5" d="M81.7941 36.7276C81.2266 38.1577 79.7448 39.0765 78.1212 38.995C75.6463 38.995 73.999 37.4093 73.999 35.0382C73.999 32.6672 75.7173 31 78.0345 31C80.3517 31 81.9044 32.5116 81.999 34.9493C81.999 35.2605 81.9202 35.5347 81.5025 35.5347H76.2532C76.2847 36.8388 76.9547 37.5575 78.137 37.5575C78.7833 37.5723 79.3744 37.2389 79.6581 36.6906C79.7685 36.535 79.9576 36.4461 80.1547 36.4535H81.5104C81.6601 36.4461 81.7862 36.5572 81.7941 36.698C81.7941 36.7202 81.7941 36.735 81.7941 36.7573V36.7276ZM78.0424 32.4967C77.0572 32.4967 76.3951 33.1414 76.2453 34.201H79.7685C79.6818 33.2748 79.1537 32.4967 78.0424 32.4967Z" fill="white"/>
</g>
</g>
</g>
</svg>
